<svg id="Layer_1" data-name="Layer 1" xmlns="http://www.w3.org/2000/svg" width="131.37mm" height="26.62mm" viewBox="0 0 372.39 75.45"><defs><style>.cls-1{fill:#09f;}.cls-2{fill:aqua;}</style></defs><title>any_key</title><path class="cls-1" d="M19.32,15l-9.7.12L10.39,20,1,20.12c0-.8,0-1.71-.06-2.74s-.06-2.12-.1-3.26S.77,11.83.72,10.64.63,8.32.59,7.21.5,5.08.46,4.13.37,2.36.34,1.67l19.08-.22,4,2.55q0,.88.09,2c0,.76.08,1.54.13,2.32s.09,1.54.14,2.27.1,1.35.15,1.86Zm-.94-9.5-9.67,0,.51,4.94,9.6-.12Z" transform="translate(-0.34 55.2)"/><path class="cls-1" d="M47.21,12.37l2.18,7.56-8.33.31L40.3,13.4l-4.08.22.6,6.29-10.47.33c0-.81,0-1.75-.08-2.8s-.09-2.16-.15-3.32-.11-2.32-.18-3.51-.13-2.34-.2-3.45S25.6,5,25.52,4.09l-.18-2.42L46.06,1.4l3.88,2.26c.13,1.3.27,2.48.42,3.55s.28,2.06.38,3Zm-7.71-7-4.39.14.65,5.64,4.32-.22Z" transform="translate(-0.34 55.2)"/><path class="cls-1" d="M73,19.79l-20.42.26L51.77,1.79l20.61-.24L73,6.28,59.18,6.16l.24,1.72,12.12-.14.34,4.63-12.22.29.15,1.94,13.29-.36Z" transform="translate(-0.34 55.2)"/><path class="cls-1" d="M74.5,19.91,74,14.53l12.67,0,0-1.35L74.54,9.4c0-1.3,0-2.6,0-3.89s0-2.55-.06-3.75L93.65,1.5l.81,6.14-5.3-.07-5.45,0,0,1.51,11.52,3.62.5,7.08Z" transform="translate(-0.34 55.2)"/><path class="cls-1" d="M96.89,19.91l-.46-5.38,12.67,0,0-1.35L96.94,9.4c0-1.3,0-2.6,0-3.89s0-2.55-.06-3.75L116,1.5l.82,6.14-5.31-.07-5.45,0,0,1.51,11.52,3.62.5,7.08Z" transform="translate(-0.34 55.2)"/><path class="cls-1" d="M141.6,20.05l-.07-8.9-4,.14,0,8.88-9-.38L129.82,1.5l20.11.19,3.21,18.48Zm2.16-14.88-9.24.15,0,2.37L144,7.38Z" transform="translate(-0.34 55.2)"/><path class="cls-1" d="M171.72,20l-1.33-1.73-1.57-2c-.55-.68-1.07-1.35-1.58-2s-.94-1.18-1.33-1.63l-2.88.09.89,7.42-9.22-.19c0-1.25-.07-2.67-.13-4.27s-.12-3.24-.19-4.91-.15-3.31-.23-4.91-.15-3-.21-4.25l4.58-.17,12.12,10.44.24-10.34,9.74-.17c0,1.46,0,3,0,4.54s0,3.15,0,4.74l0,4.75c0,1.58,0,3.09.08,4.55Z" transform="translate(-0.34 55.2)"/><path class="cls-1" d="M196.75,11.56l1.56,8.32L187.68,20l-.58-8.38-4.41-.24-.53-9.77,5.16-.19.55,7.92,5.4.17.24-8.09,9,.34.72,9.7Z" transform="translate(-0.34 55.2)"/><path class="cls-1" d="M213.86,20c.07-1.06.13-2.34.18-3.85s.11-3.11.15-4.79.07-3.36.08-5,0-3.21,0-4.58l20.31-.36.19,6.81,4.2,1,.36,10.54ZM229.13,4.84,222,5.2l-.17,2.68,7.56-.07Zm1.73,7.41-8.16.12v2.79l8.32.07Z" transform="translate(-0.34 55.2)"/><path class="cls-1" d="M260.54,19.87l-5.47.08-5.13.08-4.9.07-.82-.62c-.28-.23-.58-.46-.9-.7l-.93-.7-.9-.62c-.07-1.14-.13-2.41-.21-3.83s-.14-2.85-.21-4.29-.14-2.86-.21-4.23-.12-2.57-.19-3.61l8.86-.19,1,16.05,5.57-.14-.84-15.7c.72,0,1.55.06,2.51.09l2.91.06,2.91,0,2.47,0c0,1.39,0,2.84.06,4.34s.05,3,.07,4.56.06,3.08.1,4.63.08,3.07.13,4.56Z" transform="translate(-0.34 55.2)"/><path class="cls-1" d="M285.77,5.56l1,14.35-3.21.06L280,20l-3.38,0-2.73,0q0-1.71.06-3.54c0-1.22,0-2.46.05-3.71s0-2.49,0-3.72,0-2.43,0-3.6l-6.43.17-.12-3.94,23.88-.36.31,4Z" transform="translate(-0.34 55.2)"/><path class="cls-1" d="M310.3,5.56l1,14.35-3.21.06-3.53.06-3.37,0-2.73,0q0-1.71.06-3.54c0-1.22,0-2.46,0-3.71s0-2.49,0-3.72,0-2.43,0-3.6l-6.44.17L292,1.76l23.88-.36.32,4Z" transform="translate(-0.34 55.2)"/><path class="cls-1" d="M339.41,19.55l-19.59.33L317.23,17q.11-3.19.07-6.33c0-2.09,0-4.2-.07-6.35l2.59-2.52,19-.24,2.76,2.12.69,12.79Zm-5.21-14L326,5.63c.06.73.13,1.51.2,2.34s.15,1.66.22,2.51.15,1.68.23,2.51.15,1.59.24,2.31L334.7,15Z" transform="translate(-0.34 55.2)"/><path class="cls-1" d="M361.58,20c-.38-.5-.82-1.08-1.33-1.73s-1-1.33-1.57-2l-1.57-2c-.51-.64-.95-1.18-1.33-1.63l-2.89.09.89,7.42-9.21-.19c0-1.25-.08-2.67-.14-4.27s-.11-3.24-.19-4.91-.14-3.31-.22-4.91-.16-3-.22-4.25l4.58-.17L360.5,11.84l.24-10.34,9.75-.17c0,1.46-.05,3-.05,4.54s0,3.15,0,4.74,0,3.17,0,4.75,0,3.09.07,4.55Z" transform="translate(-0.34 55.2)"/><text x="-0.34" y="55.2"/><path class="cls-2" d="M21.32,14l-9.7.12L12.39,19,3,19.12c0-.8,0-1.71-.06-2.74s-.06-2.12-.1-3.26-.08-2.29-.13-3.48-.09-2.32-.13-3.43S2.5,4.08,2.46,3.13,2.37,1.36,2.34.67L21.42.45l4,2.55q0,.88.09,2c0,.76.08,1.54.13,2.32s.09,1.54.14,2.27.1,1.35.15,1.86Zm-.94-9.51-9.67,0,.51,4.94,9.6-.12Z" transform="translate(-0.34 55.2)"/><path class="cls-2" d="M49.21,11.37l2.18,7.56-8.33.31L42.3,12.4l-4.08.22.6,6.29-10.47.33c0-.81,0-1.75-.08-2.8s-.09-2.16-.15-3.32S28,10.8,27.94,9.61s-.13-2.34-.2-3.45S27.6,4,27.52,3.09L27.34.67,48.06.4l3.88,2.26c.13,1.3.27,2.48.42,3.55s.28,2.06.38,3Zm-7.71-7-4.39.14.65,5.64,4.32-.22Z" transform="translate(-0.34 55.2)"/><path class="cls-2" d="M75,18.79l-20.42.26L53.77.79,74.38.55,75,5.28,61.18,5.16l.24,1.72,12.12-.14.34,4.63-12.22.29.15,1.94,13.29-.36Z" transform="translate(-0.34 55.2)"/><path class="cls-2" d="M76.5,18.91,76,13.53l12.67,0,0-1.34L76.54,8.4c0-1.3,0-2.6,0-3.89s0-2.55-.06-3.75L95.65.5l.81,6.14-5.3-.07-5.45,0,0,1.51,11.52,3.62.5,7.08Z" transform="translate(-0.34 55.2)"/><path class="cls-2" d="M98.89,18.91l-.46-5.38,12.67,0,0-1.34L98.94,8.4c0-1.3,0-2.6,0-3.89s0-2.55-.06-3.75L118,.5l.82,6.14-5.31-.07-5.45,0,0,1.51,11.52,3.62.5,7.08Z" transform="translate(-0.34 55.2)"/><path class="cls-2" d="M147.82,18.91l-.79-9-7.7-.1.19,9.17-8-.17c0-1.44,0-2.92,0-4.44s0-3-.06-4.58-.06-3.06-.09-4.56-.06-3-.09-4.39L153.51.55c0,.81.08,1.72.13,2.71s.12,2,.17,3.13.12,2.21.18,3.35.13,2.24.19,3.32.13,2.11.2,3.09.12,1.85.16,2.61ZM146.24,3.69l-4.7-.12-2,1.49-.12,1.42,7.18.24Z" transform="translate(-0.34 55.2)"/><path class="cls-2" d="M173.55,19l-1.33-1.73c-.5-.66-1-1.33-1.57-2l-1.57-2c-.51-.64-1-1.18-1.34-1.63l-2.88.09.89,7.42-9.21-.19c0-1.25-.08-2.67-.14-4.27s-.12-3.24-.19-4.91-.15-3.31-.23-4.91-.15-3-.21-4.25L160.35.4l12.12,10.44L172.71.5l9.75-.17c0,1.46-.05,3-.05,4.54s0,3.15,0,4.74,0,3.17,0,4.75,0,3.09.07,4.55Z" transform="translate(-0.34 55.2)"/><path class="cls-2" d="M198.58,10.56l1.56,8.32L189.51,19l-.57-8.38-4.42-.24L184,.64l5.16-.19.55,7.92,5.4.17.24-8.09,9,.34.72,9.69Z" transform="translate(-0.34 55.2)"/><path class="cls-2" d="M216,19.08q0-4.39,0-9.09c0-3.13-.07-6.15-.1-9.08L237.25.5l.45,5.71L236,7.48l5.16,1,.79,10.32ZM230.14,4,225,4.32l.19,3.07,5.38-.19Zm2.38,5.62-6.46.19.17,4.65,7.39-.12Z" transform="translate(-0.34 55.2)"/><path class="cls-2" d="M262.71,18.87l-5.47.07L252.1,19l-4.89.07-.82-.62-.9-.7-.93-.7-.9-.62c-.07-1.14-.14-2.41-.21-3.83s-.14-2.85-.21-4.29-.14-2.86-.21-4.23-.13-2.57-.19-3.61L251.7.31l1,16.05,5.57-.14L257.46.52c.72,0,1.55.06,2.5.09l2.92.06,2.9,0,2.48,0c0,1.39,0,2.84.06,4.34s0,3,.07,4.56.05,3.08.09,4.63.09,3.07.14,4.56Z" transform="translate(-0.34 55.2)"/><path class="cls-2" d="M287.94,4.56l1,14.35-3.21.06-3.53.06-3.37,0-2.73,0q0-1.71.06-3.54c0-1.22,0-2.46,0-3.71s0-2.49,0-3.72,0-2.43,0-3.6l-6.44.17L269.62.76,293.5.4l.32,4Z" transform="translate(-0.34 55.2)"/><path class="cls-2" d="M312.46,4.56l1,14.35-3.2.06-3.53.06-3.37,0-2.74,0q0-1.71.06-3.54c0-1.22,0-2.46.05-3.71s0-2.49,0-3.72,0-2.43,0-3.6l-6.43.17L294.15.76,318,.4l.31,4Z" transform="translate(-0.34 55.2)"/><path class="cls-2" d="M341.57,18.55,322,18.88,319.4,16c.06-2.13.09-4.24.07-6.33s0-4.2-.07-6.35L322,.76l19-.24,2.76,2.12.7,12.79Zm-5.2-14-8.24.12q.11,1.1.21,2.34c.07.82.14,1.66.21,2.51s.15,1.68.23,2.5.16,1.6.24,2.32l7.85-.29Z" transform="translate(-0.34 55.2)"/><path class="cls-2" d="M363.75,19l-1.33-1.73-1.57-2-1.58-2c-.5-.64-.94-1.18-1.33-1.63l-2.88.09L356,19.1l-9.22-.19c0-1.25-.07-2.67-.13-4.27s-.12-3.24-.19-4.91-.15-3.31-.23-4.91S346,1.8,346,.57L350.55.4l12.12,10.44L362.91.5l9.74-.17c0,1.46,0,3,0,4.54s0,3.15,0,4.74l0,4.75c0,1.58,0,3.09.08,4.55Z" transform="translate(-0.34 55.2)"/></svg>