<svg id="Layer_1" data-name="Layer 1" xmlns="http://www.w3.org/2000/svg" viewBox="0 0 154.61 156.3"><defs><style>.cls-1,.cls-3{fill:#fff;}.cls-2{fill:none;stroke-width:9px;}.cls-2,.cls-3,.cls-4{stroke:#000;stroke-miterlimit:10;}.cls-3{stroke-width:10px;}.cls-4{stroke-width:4px;}</style></defs><path class="cls-1" d="M117.64,149.15a726.52,726.52,0,0,1-78.37,0c-16.8-1-30.38-16-30.38-32.63V38.21c0-16.65,13.58-31.66,30.38-32.65a742.29,742.29,0,0,1,78.37,0c16.79,1,30.37,16,30.37,32.65v78.31C148,133.17,134.43,148.15,117.64,149.15Z"/><path class="cls-2" d="M117.64,149.15a726.52,726.52,0,0,1-78.37,0c-16.8-1-30.38-16-30.38-32.63V38.21c0-16.65,13.58-31.66,30.38-32.65a742.29,742.29,0,0,1,78.37,0c16.79,1,30.37,16,30.37,32.65v78.31C148,133.17,134.43,148.15,117.64,149.15Z"/><circle class="cls-3" cx="78.45" cy="77.36" r="38.04"/><circle class="cls-4" cx="124.65" cy="33.34" r="8.15"/></svg>