<?xml version="1.0" encoding="utf-8"?>
<!-- Generator: Adobe Illustrator 18.1.1, SVG Export Plug-In . SVG Version: 6.00 Build 0)  -->
<!DOCTYPE svg PUBLIC "-//W3C//DTD SVG 1.1//EN" "http://www.w3.org/Graphics/SVG/1.1/DTD/svg11.dtd">
<svg version="1.1" id="Layer_1" xmlns="http://www.w3.org/2000/svg" xmlns:xlink="http://www.w3.org/1999/xlink" x="0px" y="0px"
	 width="266px" height="42px" viewBox="-466 380 266 42" enable-background="new -466 380 266 42" xml:space="preserve">
<g>
	<path fill="#66CC00" d="M-436.9,395.5c-3.6,1.3-8.1,1-11.7,1.9c-1.8,0.4-5.1,0.9-5.9,3.2c0.2,0.8-0.4,2.9,0.3,3.7
		c1.9,3.9,5.4,0.1,8.3,0.8c0.6-0.7,2.8-0.2,4-0.9c0.5-0.1,0.9,0.7,0.8,1.1c0,0.9-1,0.8-1.2,1.6c-5.8,2.6-11,2-16.5-0.2
		c-1.4-0.1-1.4-2.6-1.5-3.1c2.5-6.4,7.6-11.4,13.5-15.6c4.7-4,3.7,4.2,7.8,3.4c1.9-1.1,1.8-2.2,2.1-4.1c-0.8-2.3-1.3-5.9-4.5-6.4
		c-0.9-0.4-2.3-1.1-3.5-0.4c-1.3-0.8-1.9,1.1-3.3,1.2c-2.9,1-4.9,4.5-8.1,5.8c-0.7,1.7-2.7,2.3-3.3,4.1c-1.4,1.3-1.9,2.3-2.8,3.7
		c-0.2,0.3-1,0-0.6,0.8c-0.5,0.2-0.5,0.9-1.1,0.9c0.1,0.9-1,2.2-1,3.1c-1.7,3.1-0.1,6.6,0.9,9.6c1.8,1.9,2,2.7,4.6,3.5
		c4.3,1.6,10.1,2.4,14.5,0.6c1,0,1.8-1.4,3-0.7c0.2,2.2-1,5.3,0.2,7.7c1.9,0.7,3.8,1.6,5.7,0.7c1-0.7,1-2.2,1.3-3.5
		c-0.5-4.3,0.6-9.1,2.4-13.5c1.7-3,0.1-6.5-1.8-8.8L-436.9,395.5z"/>
	<path fill="#66CC00" d="M-289.8,406.9c-3.2-0.8-5.4,1.7-8.4,1.8c-1.6,0.3-2.6-0.9-3.7-1.7c-0.1-0.7,0.1-1.3,0.6-1.7
		c0.9-0.1,2.1-1.1,3.2-0.4c2.2-1.1,4.5-0.3,7.3-1.2c1.9-0.7,5.2,0.4,6-2.7c0.1-2.3,0.2-5.2-2-6.4c-3.4,2.1-7.2,2.6-11.2,2.3
		c-0.2-1.4,1.3-2.7,1.8-3.6l5.7-1.4c3.3-1,8-1,11.5-2.8c1-1.5,0.2-3.3,0-5c0-0.8-1-1-0.7-1.8c-0.7-0.8-1.4-2.4-2.8-2
		c-4.8,1.9-10.7,3.2-16,4l-1.5,1c-0.9,2.5-2.2,4.9-3,7.3c-1,2.2-2.7,4.1-3.3,6.2c-2.1,3.3-2.5,7.9-1.5,11.8c1.4,3.5,5.2,5.9,8.7,6.1
		c3.2,1.1,6.7-0.6,9.5-2.8c0.3-0.9,1-2.3,0.7-3C-288.3,409.5-289.3,408-289.8,406.9z"/>
	<path fill="#66CC00" d="M-391.6,395.6c-1.8,0.3-3.4,1.2-5.3,0.3c-0.4-0.7,0.3-1.5,0.6-2.2c4.7-2.4,10.1-2.1,14.8-4
		c0.8-1.2-0.4-2.6-0.4-3.8c-0.3-1.5-1-2.8-2-3.9c-5.8,0.5-11.2,2.3-16.8,3.5c-2.3-0.1-3.8,2.3-4.7,3.8c0,2.4,0.2,3.8,1.9,5.1
		c0.2,1.5-0.1,3.3-1.3,4.5c-1,3.3-2.1,6-1.3,9.6c1.4,5.1,6.9,6.9,12.1,7.8c2.3,0.1,4.5-1.2,5.4-3.1c0.3-2.9-0.2-4.5-2.3-6.7
		c-1.1-0.4-1.9,0.7-2.8,1.1c-2.2,0.2-3.9,0-5.6-1.3c0-0.5,0-1.5,0.5-2.1c4.3-1.5,8.8-0.5,13.2-1.8c1.4-2.5,0.6-5-1.1-7.2
		C-388.3,394.1-390,395.2-391.6,395.6z"/>
	<path fill="#66CC00" d="M-358.6,390.3c1.3,0.1,1.9-1.4,1.9-2c0.4-2-1.5-3.2-1.8-5.1c-2.1-2.3-5.5-0.2-8.1-0.3
		c-3.6,1.3-8.5,1.5-11.9,4.4c-0.6,1.5-0.4,3-0.6,4.6c-2.1,4-3.2,8.9-4.2,13.4c0,2.9,1.7,5.4,3.1,7.9c0.5,2,3.3,1,4.3,2.3
		c3.2,0.2,9.3,1.6,11.3-2.2c0-1.4,0.8-4-0.5-5.5c-0.4-1-1.3-2-2.4-2.3c-1.2,1.8-3.4,1.9-5.4,2.1c-1.5-0.6-4,0.1-4.2-2.1
		c0.8-1.3,3.2-1.3,4.2-1.5c0.8-0.6,3,0.2,3.6-0.7c2.9-0.1,4.9-0.7,7.5-1.7c1.7-0.7,0.7-2.6,0.9-3.7c-1.2-1.7-0.9-4.3-3.8-4.2
		c-1.2,1.1-3.5,1.3-5,1.9c-1.2,0-2.7,0.5-3.5,0C-371.1,389-363.4,391.6-358.6,390.3z"/>
	<path fill="#66CC00" d="M-413.9,402.7c-0.8-1.8,2.3-2.1,2.3-4c2.9-4.4,1.9-9.9-1-14.4c-1.5-2.6-4.6-4-7.7-3.7
		c-1.1-0.9-2.6,1.5-4.3,0.5c-0.6,0.3-1.9,0.7-1.9,1.8c-1.8,1-1.6,3.6-1.6,5.1c0.4,1.9,3.1,1.9,1.7,4c-0.8,1.1-0.5,3.2-1.8,4.5
		c-1.5,0-2.1,0.9-2.7,2.2c-0.5,1.8,0.5,4.2,1.5,5.4c-0.4,2.5-0.2,3.6-0.6,6l0.1,0.1c-0.3,1,0.2,2.7,0.4,3.6c0.8,1.2,1.9,2.9,3.6,2.7
		c1.1,0.1,1.8-0.2,2.2-1.1c0.3-1.5,0.7-3-0.2-4.5c0.6-1-0.4-2.8,0.3-4c0.1-0.9,0.2-0.9,1.1-1.2c1.4,1.3,3,2.4,4.6,3.7
		c3.1,1.6,4.2,5.9,8.2,5.4c1.2-1.4,3.1-3,3.1-4.8C-406.9,405.5-411.6,405.8-413.9,402.7z M-419.8,395.8c-0.1,0.4-0.7,0.1-0.9,0.4
		l-0.3-0.3c0.5-2.4,1-4.9,1-7.4c1.7-0.3,2.3,0.1,3.5,1.4C-415.5,392.7-418.1,394.3-419.8,395.8z"/>
	<path fill="#66CC00" d="M-304.1,391c-0.4-3.6-2-7.9-6.1-9.1c-5.3-1.3-12.4-1-16.9,1.3c-2.1-0.6-3.9,1.1-5.1,0.7
		c-1.1,0.6-0.7,1.9-1.8,2.2c-0.1-1.9-1.4-3.5-3-4.6c-1.9,0.3-2.4,0.3-3.3,2c0.4,1.4,0.1,3.9,0.2,5.2c-0.4,2.7-0.3,5.7-0.6,8.1
		c-0.6,0.8,0.4,2-1,2c-1.9-2.3-3.4-4.5-5.2-6.9c-0.9-3.1-0.2-6.1-0.8-9c-0.8-1.8-3-1.7-4.6-2.3c-1.2,0.5-2.3,1.3-2.4,2.6
		c-1.3,1.5-0.6,3.4-1,5.3c0.1,1.1,0.9,2.9,0.4,3.6c-0.5,0.8-0.2,2.1-0.2,3c-0.3,3.6-1.4,7.4-2.1,10.9c-1,1.4-0.3,3.2-0.7,4.6
		c0.3,1.5,0.3,2.4,1.3,3.3c1.3,0.8,3.6,1.8,5.1,0.8c0.3-2,1.5-3.5,0.9-5.6c0.5-2.6,0.8-5.4,2-7.9c0.4-0.2,0.6,0.3,0.9,0.5
		c2.1,3.5,4.9,6.8,5.6,10.3c-0.6,1.4,1.4,3.7,2,4.6c1.9-0.3,3,0.7,4.7-0.5c1.7-6.2,0.2-12.4,1.3-19.1c0.1-2,1-4.1-0.2-5.4
		c-0.2-0.7,0.2-1.1,1-1.4c2.8,3.5,5.6-1.5,8.6-0.7c1.3,0.8,0.6,3.1,0.6,4.8l-2.6,0.7c-2,0.9-1.5,3.3-2,5.1c0.3,1.8,2,2.9,3.4,3.9
		c0.4,4-2,8.4,1.2,12.1c0.4,0,1,0,1.3,0.5c1.2,0.6,2,0,2.9-0.4c2.1-3,0-4.7,1.3-8l-0.2-0.3c0.7-2.2-0.1-3.9,1.2-5.8
		c3.1-1.1,6-1.5,8.1-4C-307,396.6-304.9,393.9-304.1,391z M-314.4,392.9c-0.8-0.1-3.2,2-4.2,0c0.1-1.4-0.9-3.6,0.3-4.3
		c2.4,0.1,4.4,0.2,6.8,1.3C-311.2,391.7-313.6,392.2-314.4,392.9z"/>
	<path fill="#66CC00" d="M-200.1,389.5c-0.9-1,0.3-3.1-0.1-4c-1-1.6-1.6-4-3.9-4.1c-2.6,0.6-5.2,0.8-7.6,1.7
		c-3.5,0-8.6,1.2-12.4,1.9c-1.6-0.3-4.5,0.5-6,1.5c-1.1,0.8-1.3,2.7-1.6,3.8c0.1,4.1-3.3,6.6-3.3,10.2c-1,2,0,3.3-0.9,5.2l-0.2-0.2
		c-1.6-3.6-4.2,1.3-6.4,0.9c-3.9,0.5-7.2-1.3-10.5-3.6c-2.1-1-0.9-2.7-0.7-4.1c2.2-4.2,5.7-7.3,10-7.8c1.1,0.8-0.3,2.4,0,2.9
		c-0.1,1.4,0.2,2.9,1,3.7c1.1,0.4,2.8,1.2,3.8,1c1.2-0.3,2.1-1.8,2.8-2.7c0.9-2.4,1.1-3.7,0.6-6c-0.4-2.6-1.8-4.5-3.8-5.6
		c-0.8,0.2-2.6-0.5-3.5,0.1c-5,0.6-9.6,2.7-13.9,6c0.1,1.1-1.1,1.2-1.7,2.2c-0.5,1.3-1.3,2.8-2.5,3.8c-0.6-4-1.1-7.9-2.8-11.5
		c-0.7-2-2.6-3.5-4.5-3.6c-0.7,0.2-1.6,0.4-1.7,1.3l-0.4-0.1c-2.5,2.1-4,5.5-5.6,8.3c-0.7,1.3-1.8,2.9-1.9,3.8
		c-1.1,3.2-3.6,3.5-4.1,6.6c0.5,4.2-5.7,7.2-4,11.6c0.7,2,2.3,2.2,4.1,3c2-1.8,2.9-4.8,4-7c0.4-2.6,4-1.7,5.3-2.4
		c0.8-0.5,2.1-0.1,2.8-0.4c0.3,0,1.6,0.5,1.6,1.3c-0.6,2-0.3,4,0.1,6.4c1.2,2,2.7,2.4,4.8,2.5c1-1.4,1.5-2,1.6-3.5
		c0.8-1.5-0.7-3.2-0.1-4.8c0.2-0.6-0.2-2.7,0.8-3.3c1.1,1.5,2.5,3.6,4,4.8c1,0.3,1.2,1.7,2.4,1.8c3,2.9,8.1,4.5,12.1,5.1
		c3.9,0.1,5.9-3.4,7.2-6.5c1.4,1.8,3.2,3.8,5.4,4.6c4.1,1.7,8-0.2,11.9-0.4c1.1-0.7,3.3-1.9,3.2-3.7c0.3-1.3,0.2-3.1-1.3-3.9
		c-2-0.9-3.6-0.1-5.5,0.7c-1.2-0.8-2.9,0.4-4.2,0.3c-1.3-0.2-3.1-0.2-3.4-1.8c0.6-1.3,2.1-1.4,3.5-1.3c2.2-1.2,4.5-0.5,7.3-0.9
		c1.8-0.2,3.5,0.4,5.2-0.3c-0.1-0.9,1.6-2.7,0.3-3.2c0.5-1.3-1.1-2.7-1.9-3.9l-10.3,0.3l-0.9-0.5c0-1.4,0.9-2.6,1.8-3.4
		c4.2-1,8.3-1.1,12.4-1.5v0.1l1.2-0.2c2.4,0.7,5.1-0.7,7.3-0.4c0.6,0.7,1.5,0.7,2.1,0.6C-200.6,390.8-200,390.2-200.1,389.5z
		 M-268.6,397.1c-0.9-0.3-3.1,1.3-3.5-0.4c1.1-2,2.5-3.9,3.2-6c0.9-0.1,0.8,1,1.2,1.5C-268,393.8-267.1,395.8-268.6,397.1z"/>
</g>
</svg>
