<svg id="Layer_1" data-name="Layer 1" xmlns="http://www.w3.org/2000/svg" viewBox="0 0 165.53 126.94"><defs><style>.cls-1{stroke:#000;stroke-miterlimit:10;stroke-width:10px;}.cls-2{fill:#fff;}</style></defs><path class="cls-1" d="M135.25,113.39a852.75,852.75,0,0,1-104.1,0A18.48,18.48,0,0,1,14.24,95.15V32.57A18.51,18.51,0,0,1,31.15,14.31a869.11,869.11,0,0,1,104.1,0,18.52,18.52,0,0,1,16.91,18.26V95.15A18.49,18.49,0,0,1,135.25,113.39Z"/><path class="cls-2" d="M56.81,63.25q0-16.47,0-32.95c8.79,5.33,17.59,10.84,26.39,16.39s17.59,11.15,26.39,16.66C100.83,68.82,92,74.39,83.2,79.9s-17.63,11-26.44,16.29Q56.78,79.72,56.81,63.25Z"/></svg>